<svg width="489" height="239" viewBox="0 0 489 239" fill="none" xmlns="http://www.w3.org/2000/svg">
<rect width="489" height="239" rx="40" fill="#4089E6"/>
<path d="M110 141V210" stroke="#F5F5F5" stroke-width="15" stroke-linecap="round" stroke-linejoin="round"/>
<path d="M110.5 117C118.508 117 125 110.508 125 102.5C125 94.4919 118.508 88 110.5 88C102.492 88 96 94.4919 96 102.5C96 110.508 102.492 117 110.5 117Z" fill="#F5F5F5"/>
<g filter="url(#filter0_d_47_13)">
<path d="M76.7529 195C66.5678 190.344 57.3477 184.852 49.6668 175.996C35.1685 159.28 27.4089 137.254 28.0352 114.594C28.6615 91.9338 37.6243 70.4235 53.0211 54.6292C68.4179 38.8349 89.0366 30 110.5 30C131.963 30 152.582 38.8349 167.979 54.6292C183.376 70.4235 192.339 91.9338 192.965 114.594C193.591 137.254 185.832 159.28 171.333 175.996C163.756 184.733 154.545 189.964 144.5 194.47" stroke="#F5F5F5" stroke-width="16" stroke-linecap="round" stroke-linejoin="round"/>
</g>
<path d="M428.75 170.312C422.333 170.312 416.792 168.938 412.125 166.188C407.5 163.396 403.938 159.458 401.438 154.375C398.979 149.25 397.75 143.229 397.75 136.312V136.25C397.75 129.417 399 123.438 401.5 118.312C404 113.146 407.521 109.146 412.062 106.312C416.604 103.438 421.938 102 428.062 102C434.229 102 439.521 103.375 443.938 106.125C448.396 108.833 451.833 112.688 454.25 117.688C456.667 122.646 457.875 128.417 457.875 135V139.562H404.438V130H451.312L444.625 138.938V133.688C444.625 129.062 443.917 125.229 442.5 122.188C441.125 119.104 439.188 116.812 436.688 115.312C434.229 113.812 431.375 113.062 428.125 113.062C424.917 113.062 422.042 113.854 419.5 115.438C416.958 117.021 414.958 119.354 413.5 122.438C412.042 125.479 411.312 129.229 411.312 133.688V138.938C411.312 143.188 412.021 146.833 413.438 149.875C414.896 152.875 416.958 155.188 419.625 156.812C422.292 158.396 425.438 159.188 429.062 159.188C431.729 159.188 434.083 158.792 436.125 158C438.167 157.167 439.854 156.083 441.188 154.75C442.562 153.375 443.521 151.854 444.062 150.188L444.25 149.688H457.125L457 150.375C456.458 152.958 455.438 155.438 453.938 157.812C452.438 160.188 450.479 162.333 448.062 164.25C445.688 166.125 442.875 167.604 439.625 168.688C436.375 169.771 432.75 170.312 428.75 170.312Z" fill="#F5F5F5"/>
<path d="M302.375 170.312C296.875 170.312 292.146 169.479 288.188 167.812C284.271 166.104 281.188 163.75 278.938 160.75C276.688 157.708 275.333 154.188 274.875 150.188L274.812 149.625H288.188L288.312 150.25C288.979 153.25 290.458 155.604 292.75 157.312C295.042 158.979 298.25 159.812 302.375 159.812C305.125 159.812 307.458 159.479 309.375 158.812C311.292 158.104 312.771 157.104 313.812 155.812C314.854 154.521 315.375 152.979 315.375 151.188V151.125C315.375 149 314.688 147.292 313.312 146C311.938 144.708 309.479 143.625 305.938 142.75L295.188 140.312C291.021 139.354 287.542 138.042 284.75 136.375C282 134.708 279.938 132.667 278.562 130.25C277.188 127.833 276.5 125.042 276.5 121.875V121.812C276.5 117.854 277.562 114.396 279.688 111.438C281.812 108.438 284.792 106.125 288.625 104.5C292.458 102.833 296.896 102 301.938 102C307.104 102 311.562 102.875 315.312 104.625C319.062 106.375 321.979 108.771 324.062 111.812C326.188 114.812 327.354 118.167 327.562 121.875V122.625H314.875L314.812 122.188C314.438 119.312 313.146 116.979 310.938 115.188C308.729 113.354 305.729 112.438 301.938 112.438C299.521 112.438 297.417 112.792 295.625 113.5C293.833 114.208 292.458 115.229 291.5 116.562C290.542 117.854 290.062 119.375 290.062 121.125V121.188C290.062 122.521 290.375 123.729 291 124.812C291.667 125.896 292.729 126.833 294.188 127.625C295.646 128.417 297.521 129.083 299.812 129.625L310.562 132.125C317.271 133.667 322.021 135.854 324.812 138.688C327.646 141.479 329.062 145.25 329.062 150V150.062C329.062 154.062 327.917 157.583 325.625 160.625C323.333 163.667 320.167 166.042 316.125 167.75C312.125 169.458 307.542 170.312 302.375 170.312Z" fill="#F5F5F5"/>
<path d="M235.75 169V78.8125H247V169H235.75Z" fill="#F5F5F5"/>
<path d="M356.312 169V78.8125H370.312V169H356.312Z" fill="#F5F5F5"/>
<defs>
<filter id="filter0_d_47_13" x="16" y="22" width="189" height="189.002" filterUnits="userSpaceOnUse" color-interpolation-filters="sRGB">
<feFlood flood-opacity="0" result="BackgroundImageFix"/>
<feColorMatrix in="SourceAlpha" type="matrix" values="0 0 0 0 0 0 0 0 0 0 0 0 0 0 0 0 0 0 127 0" result="hardAlpha"/>
<feOffset dy="4"/>
<feGaussianBlur stdDeviation="2"/>
<feComposite in2="hardAlpha" operator="out"/>
<feColorMatrix type="matrix" values="0 0 0 0 0 0 0 0 0 0 0 0 0 0 0 0 0 0 0.25 0"/>
<feBlend mode="normal" in2="BackgroundImageFix" result="effect1_dropShadow_47_13"/>
<feBlend mode="normal" in="SourceGraphic" in2="effect1_dropShadow_47_13" result="shape"/>
</filter>
</defs>
</svg>
