<svg width="936" height="635" viewBox="0 0 936 635" fill="none" xmlns="http://www.w3.org/2000/svg">
<rect width="936" height="635" rx="40" fill="#0B0B0C"/>
<path d="M700.18 494.816C699.93 494.051 699.601 493.366 699.192 492.76C698.79 492.146 698.309 491.623 697.749 491.191C697.196 490.76 696.567 490.43 695.862 490.203C695.158 489.975 694.385 489.862 693.544 489.862C692.165 489.862 690.911 490.218 689.783 490.93C688.654 491.642 687.756 492.691 687.089 494.078C686.423 495.464 686.089 497.165 686.089 499.18C686.089 501.195 686.427 502.896 687.101 504.282C687.775 505.669 688.688 506.718 689.839 507.43C690.991 508.142 692.286 508.498 693.726 508.498C695.059 508.498 696.233 508.214 697.249 507.646C698.271 507.07 699.067 506.26 699.635 505.214C700.211 504.161 700.499 502.922 700.499 501.498L701.362 501.68H694.362V499.18H703.226V501.68C703.226 503.597 702.817 505.263 701.999 506.68C701.188 508.097 700.067 509.195 698.635 509.975C697.211 510.748 695.574 511.135 693.726 511.135C691.665 511.135 689.855 510.65 688.294 509.68C686.741 508.71 685.529 507.332 684.658 505.544C683.794 503.756 683.362 501.635 683.362 499.18C683.362 497.339 683.608 495.684 684.101 494.214C684.601 492.737 685.305 491.479 686.214 490.441C687.124 489.404 688.199 488.608 689.442 488.055C690.684 487.502 692.052 487.225 693.544 487.225C694.771 487.225 695.915 487.411 696.976 487.782C698.044 488.146 698.995 488.665 699.828 489.339C700.669 490.006 701.37 490.805 701.93 491.737C702.491 492.661 702.877 493.688 703.089 494.816H700.18ZM708.053 510.816V487.544H715.916C717.734 487.544 719.227 487.854 720.393 488.475C721.56 489.089 722.424 489.934 722.984 491.01C723.545 492.085 723.825 493.309 723.825 494.68C723.825 496.051 723.545 497.267 722.984 498.328C722.424 499.388 721.564 500.222 720.405 500.828C719.246 501.426 717.765 501.725 715.962 501.725H709.598V499.18H715.871C717.113 499.18 718.113 498.998 718.871 498.635C719.636 498.271 720.189 497.756 720.53 497.089C720.878 496.415 721.053 495.612 721.053 494.68C721.053 493.748 720.878 492.934 720.53 492.237C720.181 491.54 719.625 491.002 718.859 490.623C718.094 490.237 717.083 490.044 715.825 490.044H710.871V510.816H708.053ZM719.007 500.362L724.734 510.816H721.462L715.825 500.362H719.007ZM748.158 499.18C748.158 501.635 747.714 503.756 746.828 505.544C745.942 507.332 744.726 508.71 743.18 509.68C741.635 510.65 739.87 511.135 737.885 511.135C735.9 511.135 734.135 510.65 732.589 509.68C731.044 508.71 729.828 507.332 728.942 505.544C728.055 503.756 727.612 501.635 727.612 499.18C727.612 496.725 728.055 494.604 728.942 492.816C729.828 491.029 731.044 489.65 732.589 488.68C734.135 487.71 735.9 487.225 737.885 487.225C739.87 487.225 741.635 487.71 743.18 488.68C744.726 489.65 745.942 491.029 746.828 492.816C747.714 494.604 748.158 496.725 748.158 499.18ZM745.43 499.18C745.43 497.165 745.093 495.464 744.419 494.078C743.752 492.691 742.847 491.642 741.703 490.93C740.567 490.218 739.294 489.862 737.885 489.862C736.476 489.862 735.199 490.218 734.055 490.93C732.919 491.642 732.014 492.691 731.339 494.078C730.673 495.464 730.339 497.165 730.339 499.18C730.339 501.195 730.673 502.896 731.339 504.282C732.014 505.669 732.919 506.718 734.055 507.43C735.199 508.142 736.476 508.498 737.885 508.498C739.294 508.498 740.567 508.142 741.703 507.43C742.847 506.718 743.752 505.669 744.419 504.282C745.093 502.896 745.43 501.195 745.43 499.18ZM757.124 510.816L750.76 487.544H753.624L758.487 506.498H758.714L763.669 487.544H766.851L771.805 506.498H772.033L776.896 487.544H779.76L773.396 510.816H770.487L765.351 492.271H765.169L760.033 510.816H757.124ZM781.999 490.044V487.544H799.453V490.044H792.135V510.816H789.317V490.044H781.999ZM803.803 510.816V487.544H806.621V497.907H819.03V487.544H821.848V510.816H819.03V500.407H806.621V510.816H803.803Z" fill="white"/>
<path d="M452.999 494.816H450.18C450.014 494.006 449.722 493.294 449.305 492.68C448.896 492.066 448.396 491.551 447.805 491.135C447.222 490.71 446.574 490.392 445.862 490.18C445.15 489.968 444.408 489.862 443.635 489.862C442.226 489.862 440.949 490.218 439.805 490.93C438.669 491.642 437.764 492.691 437.089 494.078C436.423 495.464 436.089 497.165 436.089 499.18C436.089 501.195 436.423 502.896 437.089 504.282C437.764 505.669 438.669 506.718 439.805 507.43C440.949 508.142 442.226 508.498 443.635 508.498C444.408 508.498 445.15 508.392 445.862 508.18C446.574 507.968 447.222 507.654 447.805 507.237C448.396 506.813 448.896 506.294 449.305 505.68C449.722 505.059 450.014 504.347 450.18 503.544H452.999C452.786 504.733 452.4 505.797 451.839 506.737C451.279 507.676 450.582 508.475 449.749 509.135C448.915 509.786 447.98 510.282 446.942 510.623C445.911 510.964 444.809 511.135 443.635 511.135C441.65 511.135 439.885 510.65 438.339 509.68C436.794 508.71 435.578 507.332 434.692 505.544C433.805 503.756 433.362 501.635 433.362 499.18C433.362 496.725 433.805 494.604 434.692 492.816C435.578 491.029 436.794 489.65 438.339 488.68C439.885 487.71 441.65 487.225 443.635 487.225C444.809 487.225 445.911 487.396 446.942 487.737C447.98 488.078 448.915 488.578 449.749 489.237C450.582 489.888 451.279 490.684 451.839 491.623C452.4 492.555 452.786 493.619 452.999 494.816ZM477.189 499.18C477.189 501.635 476.746 503.756 475.859 505.544C474.973 507.332 473.757 508.71 472.212 509.68C470.666 510.65 468.901 511.135 466.916 511.135C464.931 511.135 463.166 510.65 461.621 509.68C460.075 508.71 458.859 507.332 457.973 505.544C457.087 503.756 456.643 501.635 456.643 499.18C456.643 496.725 457.087 494.604 457.973 492.816C458.859 491.029 460.075 489.65 461.621 488.68C463.166 487.71 464.931 487.225 466.916 487.225C468.901 487.225 470.666 487.71 472.212 488.68C473.757 489.65 474.973 491.029 475.859 492.816C476.746 494.604 477.189 496.725 477.189 499.18ZM474.462 499.18C474.462 497.165 474.125 495.464 473.45 494.078C472.784 492.691 471.878 491.642 470.734 490.93C469.598 490.218 468.325 489.862 466.916 489.862C465.507 489.862 464.231 490.218 463.087 490.93C461.95 491.642 461.045 492.691 460.371 494.078C459.704 495.464 459.371 497.165 459.371 499.18C459.371 501.195 459.704 502.896 460.371 504.282C461.045 505.669 461.95 506.718 463.087 507.43C464.231 508.142 465.507 508.498 466.916 508.498C468.325 508.498 469.598 508.142 470.734 507.43C471.878 506.718 472.784 505.669 473.45 504.282C474.125 502.896 474.462 501.195 474.462 499.18ZM500.382 487.544V510.816H497.655L484.973 492.544H484.746V510.816H481.928V487.544H484.655L497.382 505.862H497.609V487.544H500.382ZM518.749 493.362C518.612 492.21 518.059 491.316 517.089 490.68C516.12 490.044 514.93 489.725 513.521 489.725C512.491 489.725 511.589 489.892 510.817 490.225C510.052 490.559 509.453 491.017 509.021 491.6C508.597 492.184 508.385 492.847 508.385 493.589C508.385 494.21 508.533 494.744 508.828 495.191C509.131 495.631 509.518 495.998 509.987 496.294C510.457 496.582 510.949 496.82 511.464 497.01C511.98 497.191 512.453 497.339 512.885 497.453L515.249 498.089C515.855 498.248 516.529 498.468 517.271 498.748C518.021 499.029 518.737 499.411 519.419 499.896C520.108 500.373 520.677 500.987 521.124 501.737C521.571 502.487 521.794 503.407 521.794 504.498C521.794 505.756 521.464 506.892 520.805 507.907C520.154 508.922 519.199 509.729 517.942 510.328C516.692 510.926 515.173 511.225 513.385 511.225C511.718 511.225 510.275 510.957 509.055 510.419C507.843 509.881 506.889 509.131 506.192 508.169C505.502 507.207 505.112 506.089 505.021 504.816H507.93C508.006 505.695 508.302 506.422 508.817 506.998C509.339 507.566 509.999 507.991 510.794 508.271C511.597 508.544 512.461 508.68 513.385 508.68C514.461 508.68 515.427 508.506 516.283 508.157C517.139 507.801 517.817 507.309 518.317 506.68C518.817 506.044 519.067 505.301 519.067 504.453C519.067 503.68 518.851 503.051 518.419 502.566C517.987 502.082 517.419 501.688 516.714 501.385C516.01 501.082 515.249 500.816 514.43 500.589L511.567 499.771C509.749 499.248 508.309 498.502 507.249 497.532C506.188 496.563 505.658 495.294 505.658 493.725C505.658 492.422 506.01 491.286 506.714 490.316C507.427 489.339 508.381 488.582 509.578 488.044C510.783 487.498 512.127 487.225 513.612 487.225C515.112 487.225 516.446 487.494 517.612 488.032C518.779 488.563 519.703 489.29 520.385 490.214C521.074 491.138 521.438 492.188 521.476 493.362H518.749ZM529.246 487.544V510.816H526.428V487.544H529.246ZM547.624 493.362C547.487 492.21 546.934 491.316 545.964 490.68C544.995 490.044 543.805 489.725 542.396 489.725C541.366 489.725 540.464 489.892 539.692 490.225C538.927 490.559 538.328 491.017 537.896 491.6C537.472 492.184 537.26 492.847 537.26 493.589C537.26 494.21 537.408 494.744 537.703 495.191C538.006 495.631 538.393 495.998 538.862 496.294C539.332 496.582 539.824 496.82 540.339 497.01C540.855 497.191 541.328 497.339 541.76 497.453L544.124 498.089C544.73 498.248 545.404 498.468 546.146 498.748C546.896 499.029 547.612 499.411 548.294 499.896C548.983 500.373 549.552 500.987 549.999 501.737C550.446 502.487 550.669 503.407 550.669 504.498C550.669 505.756 550.339 506.892 549.68 507.907C549.029 508.922 548.074 509.729 546.817 510.328C545.567 510.926 544.048 511.225 542.26 511.225C540.593 511.225 539.15 510.957 537.93 510.419C536.718 509.881 535.764 509.131 535.067 508.169C534.377 507.207 533.987 506.089 533.896 504.816H536.805C536.881 505.695 537.177 506.422 537.692 506.998C538.214 507.566 538.874 507.991 539.669 508.271C540.472 508.544 541.336 508.68 542.26 508.68C543.336 508.68 544.302 508.506 545.158 508.157C546.014 507.801 546.692 507.309 547.192 506.68C547.692 506.044 547.942 505.301 547.942 504.453C547.942 503.68 547.726 503.051 547.294 502.566C546.862 502.082 546.294 501.688 545.589 501.385C544.885 501.082 544.124 500.816 543.305 500.589L540.442 499.771C538.624 499.248 537.184 498.502 536.124 497.532C535.063 496.563 534.533 495.294 534.533 493.725C534.533 492.422 534.885 491.286 535.589 490.316C536.302 489.339 537.256 488.582 538.453 488.044C539.658 487.498 541.002 487.225 542.487 487.225C543.987 487.225 545.321 487.494 546.487 488.032C547.654 488.563 548.578 489.29 549.26 490.214C549.949 491.138 550.313 492.188 550.351 493.362H547.624ZM554.03 490.044V487.544H571.484V490.044H564.166V510.816H561.348V490.044H554.03ZM575.834 510.816V487.544H589.879V490.044H578.652V497.907H589.152V500.407H578.652V508.316H590.061V510.816H575.834ZM613.413 487.544V510.816H610.686L598.004 492.544H597.777V510.816H594.959V487.544H597.686L610.413 505.862H610.641V487.544H613.413ZM637.78 494.816H634.962C634.795 494.006 634.503 493.294 634.087 492.68C633.678 492.066 633.178 491.551 632.587 491.135C632.003 490.71 631.356 490.392 630.643 490.18C629.931 489.968 629.189 489.862 628.416 489.862C627.007 489.862 625.731 490.218 624.587 490.93C623.45 491.642 622.545 492.691 621.871 494.078C621.204 495.464 620.871 497.165 620.871 499.18C620.871 501.195 621.204 502.896 621.871 504.282C622.545 505.669 623.45 506.718 624.587 507.43C625.731 508.142 627.007 508.498 628.416 508.498C629.189 508.498 629.931 508.392 630.643 508.18C631.356 507.968 632.003 507.654 632.587 507.237C633.178 506.813 633.678 506.294 634.087 505.68C634.503 505.059 634.795 504.347 634.962 503.544H637.78C637.568 504.733 637.181 505.797 636.621 506.737C636.06 507.676 635.363 508.475 634.53 509.135C633.696 509.786 632.761 510.282 631.723 510.623C630.693 510.964 629.59 511.135 628.416 511.135C626.431 511.135 624.666 510.65 623.121 509.68C621.575 508.71 620.359 507.332 619.473 505.544C618.587 503.756 618.143 501.635 618.143 499.18C618.143 496.725 618.587 494.604 619.473 492.816C620.359 491.029 621.575 489.65 623.121 488.68C624.666 487.71 626.431 487.225 628.416 487.225C629.59 487.225 630.693 487.396 631.723 487.737C632.761 488.078 633.696 488.578 634.53 489.237C635.363 489.888 636.06 490.684 636.621 491.623C637.181 492.555 637.568 493.619 637.78 494.816ZM640.334 487.544H643.561L650.016 498.407H650.288L656.743 487.544H659.97L651.561 501.225V510.816H648.743V501.225L640.334 487.544Z" fill="white"/>
<path d="M303.271 510.816V487.544H317.226V490.044H306.089V497.907H316.18V500.407H306.089V510.816H303.271ZM341.689 499.18C341.689 501.635 341.246 503.756 340.359 505.544C339.473 507.332 338.257 508.71 336.712 509.68C335.166 510.65 333.401 511.135 331.416 511.135C329.431 511.135 327.666 510.65 326.121 509.68C324.575 508.71 323.359 507.332 322.473 505.544C321.587 503.756 321.143 501.635 321.143 499.18C321.143 496.725 321.587 494.604 322.473 492.816C323.359 491.029 324.575 489.65 326.121 488.68C327.666 487.71 329.431 487.225 331.416 487.225C333.401 487.225 335.166 487.71 336.712 488.68C338.257 489.65 339.473 491.029 340.359 492.816C341.246 494.604 341.689 496.725 341.689 499.18ZM338.962 499.18C338.962 497.165 338.625 495.464 337.95 494.078C337.284 492.691 336.378 491.642 335.234 490.93C334.098 490.218 332.825 489.862 331.416 489.862C330.007 489.862 328.731 490.218 327.587 490.93C326.45 491.642 325.545 492.691 324.871 494.078C324.204 495.464 323.871 497.165 323.871 499.18C323.871 501.195 324.204 502.896 324.871 504.282C325.545 505.669 326.45 506.718 327.587 507.43C328.731 508.142 330.007 508.498 331.416 508.498C332.825 508.498 334.098 508.142 335.234 507.43C336.378 506.718 337.284 505.669 337.95 504.282C338.625 502.896 338.962 501.195 338.962 499.18ZM365.155 494.816H362.337C362.17 494.006 361.878 493.294 361.462 492.68C361.053 492.066 360.553 491.551 359.962 491.135C359.378 490.71 358.731 490.392 358.018 490.18C357.306 489.968 356.564 489.862 355.791 489.862C354.382 489.862 353.106 490.218 351.962 490.93C350.825 491.642 349.92 492.691 349.246 494.078C348.579 495.464 348.246 497.165 348.246 499.18C348.246 501.195 348.579 502.896 349.246 504.282C349.92 505.669 350.825 506.718 351.962 507.43C353.106 508.142 354.382 508.498 355.791 508.498C356.564 508.498 357.306 508.392 358.018 508.18C358.731 507.968 359.378 507.654 359.962 507.237C360.553 506.813 361.053 506.294 361.462 505.68C361.878 505.059 362.17 504.347 362.337 503.544H365.155C364.943 504.733 364.556 505.797 363.996 506.737C363.435 507.676 362.738 508.475 361.905 509.135C361.071 509.786 360.136 510.282 359.098 510.623C358.068 510.964 356.965 511.135 355.791 511.135C353.806 511.135 352.041 510.65 350.496 509.68C348.95 508.71 347.734 507.332 346.848 505.544C345.962 503.756 345.518 501.635 345.518 499.18C345.518 496.725 345.962 494.604 346.848 492.816C347.734 491.029 348.95 489.65 350.496 488.68C352.041 487.71 353.806 487.225 355.791 487.225C356.965 487.225 358.068 487.396 359.098 487.737C360.136 488.078 361.071 488.578 361.905 489.237C362.738 489.888 363.435 490.684 363.996 491.623C364.556 492.555 364.943 493.619 365.155 494.816ZM384.982 487.544H387.8V502.953C387.8 504.544 387.425 505.964 386.675 507.214C385.932 508.457 384.883 509.438 383.527 510.157C382.171 510.869 380.58 511.225 378.754 511.225C376.929 511.225 375.338 510.869 373.982 510.157C372.625 509.438 371.572 508.457 370.822 507.214C370.08 505.964 369.709 504.544 369.709 502.953V487.544H372.527V502.725C372.527 503.862 372.777 504.873 373.277 505.76C373.777 506.638 374.489 507.332 375.413 507.839C376.345 508.339 377.459 508.589 378.754 508.589C380.05 508.589 381.163 508.339 382.095 507.839C383.027 507.332 383.739 506.638 384.232 505.76C384.732 504.873 384.982 503.862 384.982 502.725V487.544ZM406.155 493.362C406.018 492.21 405.465 491.316 404.496 490.68C403.526 490.044 402.337 489.725 400.928 489.725C399.897 489.725 398.996 489.892 398.223 490.225C397.458 490.559 396.859 491.017 396.428 491.6C396.003 492.184 395.791 492.847 395.791 493.589C395.791 494.21 395.939 494.744 396.234 495.191C396.537 495.631 396.924 495.998 397.393 496.294C397.863 496.582 398.356 496.82 398.871 497.01C399.386 497.191 399.859 497.339 400.291 497.453L402.655 498.089C403.261 498.248 403.935 498.468 404.678 498.748C405.428 499.029 406.143 499.411 406.825 499.896C407.515 500.373 408.083 500.987 408.53 501.737C408.977 502.487 409.2 503.407 409.2 504.498C409.2 505.756 408.871 506.892 408.212 507.907C407.56 508.922 406.606 509.729 405.348 510.328C404.098 510.926 402.579 511.225 400.791 511.225C399.125 511.225 397.681 510.957 396.462 510.419C395.25 509.881 394.295 509.131 393.598 508.169C392.909 507.207 392.518 506.089 392.428 504.816H395.337C395.412 505.695 395.708 506.422 396.223 506.998C396.746 507.566 397.405 507.991 398.2 508.271C399.003 508.544 399.867 508.68 400.791 508.68C401.867 508.68 402.833 508.506 403.689 508.157C404.545 507.801 405.223 507.309 405.723 506.68C406.223 506.044 406.473 505.301 406.473 504.453C406.473 503.68 406.257 503.051 405.825 502.566C405.393 502.082 404.825 501.688 404.121 501.385C403.416 501.082 402.655 500.816 401.837 500.589L398.973 499.771C397.155 499.248 395.715 498.502 394.655 497.532C393.594 496.563 393.064 495.294 393.064 493.725C393.064 492.422 393.416 491.286 394.121 490.316C394.833 489.339 395.787 488.582 396.984 488.044C398.189 487.498 399.534 487.225 401.018 487.225C402.518 487.225 403.852 487.494 405.018 488.032C406.185 488.563 407.109 489.29 407.791 490.214C408.481 491.138 408.844 492.188 408.882 493.362H406.155Z" fill="white"/>
<path d="M234.678 353.783V472.999" stroke="white" stroke-width="25.9166" stroke-linecap="round" stroke-linejoin="round"/>
<path d="M235.541 312.316C249.377 312.316 260.594 301.099 260.594 287.263C260.594 273.427 249.377 262.21 235.541 262.21C221.705 262.21 210.488 273.427 210.488 287.263C210.488 301.099 221.705 312.316 235.541 312.316Z" fill="white"/>
<g filter="url(#filter0_d_44_206)">
<path d="M177.234 447.083C159.636 439.038 143.706 429.549 130.435 414.248C105.386 385.367 91.9787 347.311 93.0608 308.159C94.1429 269.008 109.629 231.843 136.231 204.554C162.833 177.265 198.457 162 235.542 162C272.626 162 308.25 177.265 334.852 204.554C361.454 231.843 376.94 269.008 378.022 308.159C379.104 347.311 365.697 385.367 340.648 414.248C327.555 429.343 311.642 438.382 294.286 446.168" stroke="white" stroke-width="27.6444" stroke-linecap="round" stroke-linejoin="round"/>
</g>
<path d="M785.406 404.639C774.32 404.639 764.745 402.264 756.682 397.512C748.691 392.689 742.536 385.886 738.217 377.103C733.969 368.248 731.845 357.845 731.845 345.895V345.787C731.845 333.98 734.005 323.65 738.325 314.795C742.644 305.868 748.727 298.957 756.574 294.062C764.421 289.094 773.636 286.611 784.219 286.611C794.873 286.611 804.016 288.986 811.647 293.738C819.35 298.417 825.289 305.076 829.465 313.715C833.64 322.282 835.728 332.253 835.728 343.627V351.51H743.4V334.988H824.389L812.835 350.43V341.36C812.835 333.369 811.611 326.745 809.163 321.49C806.788 316.163 803.44 312.203 799.121 309.612C794.873 307.02 789.942 305.724 784.327 305.724C778.783 305.724 773.816 307.092 769.424 309.828C765.033 312.563 761.578 316.595 759.058 321.922C756.538 327.177 755.278 333.657 755.278 341.36V350.43C755.278 357.773 756.502 364.073 758.95 369.328C761.47 374.511 765.033 378.507 769.64 381.314C774.248 384.05 779.683 385.418 785.946 385.418C790.554 385.418 794.621 384.734 798.149 383.366C801.676 381.926 804.592 380.054 806.896 377.751C809.271 375.375 810.927 372.747 811.863 369.868L812.187 369.004H834.432L834.216 370.192C833.28 374.655 831.516 378.939 828.925 383.042C826.333 387.146 822.95 390.853 818.774 394.165C814.671 397.404 809.811 399.96 804.196 401.832C798.581 403.703 792.318 404.639 785.406 404.639Z" fill="white"/>
<path d="M567.06 404.639C557.557 404.639 549.386 403.199 542.547 400.32C535.78 397.368 530.452 393.301 526.565 388.117C522.677 382.862 520.338 376.779 519.546 369.868L519.438 368.896H542.547L542.763 369.976C543.915 375.159 546.47 379.227 550.43 382.178C554.389 385.058 559.932 386.498 567.06 386.498C571.811 386.498 575.842 385.922 579.154 384.77C582.466 383.546 585.021 381.818 586.821 379.587C588.621 377.355 589.521 374.691 589.521 371.596V371.488C589.521 367.816 588.333 364.864 585.957 362.633C583.581 360.401 579.334 358.529 573.215 357.017L554.641 352.806C547.442 351.15 541.431 348.883 536.608 346.003C531.856 343.123 528.293 339.596 525.917 335.42C523.541 331.245 522.353 326.421 522.353 320.95V320.842C522.353 314.003 524.189 308.028 527.861 302.917C531.532 297.733 536.679 293.738 543.303 290.93C549.926 288.05 557.593 286.611 566.304 286.611C575.23 286.611 582.933 288.122 589.413 291.146C595.892 294.17 600.931 298.309 604.531 303.564C608.202 308.748 610.218 314.543 610.578 320.95V322.246H588.657L588.549 321.49C587.901 316.523 585.669 312.491 581.854 309.396C578.038 306.228 572.855 304.644 566.304 304.644C562.128 304.644 558.493 305.256 555.397 306.48C552.301 307.704 549.926 309.468 548.27 311.771C546.614 314.003 545.786 316.631 545.786 319.654V319.762C545.786 322.066 546.326 324.154 547.406 326.025C548.558 327.897 550.394 329.517 552.913 330.885C555.433 332.253 558.673 333.405 562.632 334.34L581.206 338.66C592.796 341.324 601.003 345.103 605.827 349.998C610.722 354.822 613.17 361.337 613.17 369.544V369.652C613.17 376.563 611.19 382.646 607.23 387.901C603.271 393.157 597.8 397.26 590.816 400.212C583.905 403.163 575.986 404.639 567.06 404.639Z" fill="white"/>
<path d="M450.002 402.372V246.548H468.792V402.372H450.002Z" fill="white"/>
<path d="M658.307 402.372V246.548H681.74V402.372H658.307Z" fill="white"/>
<defs>
<filter id="filter0_d_44_206" x="72.2666" y="148.178" width="326.55" height="326.553" filterUnits="userSpaceOnUse" color-interpolation-filters="sRGB">
<feFlood flood-opacity="0" result="BackgroundImageFix"/>
<feColorMatrix in="SourceAlpha" type="matrix" values="0 0 0 0 0 0 0 0 0 0 0 0 0 0 0 0 0 0 127 0" result="hardAlpha"/>
<feOffset dy="6.9111"/>
<feGaussianBlur stdDeviation="3.45555"/>
<feComposite in2="hardAlpha" operator="out"/>
<feColorMatrix type="matrix" values="0 0 0 0 0 0 0 0 0 0 0 0 0 0 0 0 0 0 0.25 0"/>
<feBlend mode="normal" in2="BackgroundImageFix" result="effect1_dropShadow_44_206"/>
<feBlend mode="normal" in="SourceGraphic" in2="effect1_dropShadow_44_206" result="shape"/>
</filter>
</defs>
</svg>
