<svg width="278" height="278" viewBox="0 0 278 278" fill="none" xmlns="http://www.w3.org/2000/svg">
<rect width="278" height="278" rx="60" fill="#0B0B0C"/>
<path d="M139 160V229" stroke="white" stroke-width="15" stroke-linecap="round" stroke-linejoin="round"/>
<path d="M139.5 136C147.508 136 154 129.508 154 121.5C154 113.492 147.508 107 139.5 107C131.492 107 125 113.492 125 121.5C125 129.508 131.492 136 139.5 136Z" fill="white"/>
<g filter="url(#filter0_d_42_84)">
<path d="M105.753 214C95.5678 209.344 86.3477 203.852 78.6668 194.996C64.1685 178.28 56.4089 156.254 57.0352 133.594C57.6615 110.934 66.6243 89.4235 82.0211 73.6292C97.4179 57.8349 118.037 49 139.5 49C160.963 49 181.582 57.8349 196.979 73.6292C212.376 89.4235 221.339 110.934 221.965 133.594C222.591 156.254 214.832 178.28 200.333 194.996C192.756 203.733 183.545 208.964 173.5 213.47" stroke="white" stroke-width="16" stroke-linecap="round" stroke-linejoin="round"/>
</g>
<defs>
<filter id="filter0_d_42_84" x="45" y="41" width="189" height="189.002" filterUnits="userSpaceOnUse" color-interpolation-filters="sRGB">
<feFlood flood-opacity="0" result="BackgroundImageFix"/>
<feColorMatrix in="SourceAlpha" type="matrix" values="0 0 0 0 0 0 0 0 0 0 0 0 0 0 0 0 0 0 127 0" result="hardAlpha"/>
<feOffset dy="4"/>
<feGaussianBlur stdDeviation="2"/>
<feComposite in2="hardAlpha" operator="out"/>
<feColorMatrix type="matrix" values="0 0 0 0 0 0 0 0 0 0 0 0 0 0 0 0 0 0 0.25 0"/>
<feBlend mode="normal" in2="BackgroundImageFix" result="effect1_dropShadow_42_84"/>
<feBlend mode="normal" in="SourceGraphic" in2="effect1_dropShadow_42_84" result="shape"/>
</filter>
</defs>
</svg>
